<?xml version="1.0" encoding="UTF-8" standalone="no"?>
<svg
   xmlns:dc="http://purl.org/dc/elements/1.1/"
   xmlns:cc="http://creativecommons.org/ns#"
   xmlns:rdf="http://www.w3.org/1999/02/22-rdf-syntax-ns#"
   xmlns:svg="http://www.w3.org/2000/svg"
   xmlns="http://www.w3.org/2000/svg"
   xmlns:sodipodi="http://sodipodi.sourceforge.net/DTD/sodipodi-0.dtd"
   xmlns:inkscape="http://www.inkscape.org/namespaces/inkscape"
   inkscape:version="1.0 (4035a4fb49, 2020-05-01)"
   sodipodi:docname="safari-pinned-tab.svg"
   id="svg4"
   version="1.1"
   fill="currentColor"
   class="bi bi-lightning-fill"
   viewBox="0 0 16 16"
   height="1em"
   width="1em">
  <metadata
     id="metadata10">
    <rdf:RDF>
      <cc:Work
         rdf:about="">
        <dc:format>image/svg+xml</dc:format>
        <dc:type
           rdf:resource="http://purl.org/dc/dcmitype/StillImage" />
      </cc:Work>
    </rdf:RDF>
  </metadata>
  <defs
     id="defs8" />
  <sodipodi:namedview
     inkscape:current-layer="svg4"
     inkscape:window-maximized="1"
     inkscape:window-y="0"
     inkscape:window-x="0"
     inkscape:cy="4.8017909"
     inkscape:cx="5.1263329"
     inkscape:zoom="45.254834"
     showgrid="false"
     id="namedview6"
     inkscape:window-height="1025"
     inkscape:window-width="1920"
     inkscape:pageshadow="2"
     inkscape:pageopacity="0"
     guidetolerance="10"
     gridtolerance="10"
     objecttolerance="10"
     borderopacity="1"
     bordercolor="#666666"
     pagecolor="#ffffff" />
  <path
     style="fill:#1976d2;fill-opacity:1"
     id="path2"
     d="M11.251.068a.5.5 0 0 1 .227.58L9.677 6.5H13a.5.5 0 0 1 .364.843l-8 8.5a.5.5 0 0 1-.842-.49L6.323 9.5H3a.5.5 0 0 1-.364-.843l8-8.5a.5.5 0 0 1 .615-.09z"
     fill-rule="evenodd" />
  <path
     id="path837"
     d="M 4.8670122,15.974371 C 4.6578969,15.905758 4.5140962,15.717294 4.51323,15.510707 4.5129082,15.43391 4.7062111,14.784436 5.4172494,12.473317 5.9146853,10.85648 6.3216783,9.5221162 6.3216783,9.5080651 c 0,-0.021444 -0.2763315,-0.025613 -1.7202797,-0.025957 C 2.9768538,9.4817212 2.8769678,9.4798061 2.8065268,9.4476953 2.6201369,9.3627286 2.5172087,9.2026044 2.5178921,8.9986697 2.518449,8.8324752 2.5593121,8.7514857 2.7366681,8.5650624 2.8176701,8.4799191 4.5648571,6.6228438 6.6193057,4.4382284 8.6737542,2.2536131 10.435356,0.3837686 10.533977,0.28301855 c 0.226281,-0.23116703 0.28376,-0.26350609 0.468354,-0.26350609 0.107215,0 0.157271,0.0093111 0.214452,0.03989172 0.162236,0.08676316 0.269263,0.25717838 0.269987,0.42988884 3.22e-4,0.0767971 -0.192981,0.72627058 -0.904019,3.03738948 -0.497436,1.6168377 -0.9044293,2.9512013 -0.9044293,2.9652524 0,0.021447 0.2762855,0.025548 1.7212803,0.025548 h 1.72128 l 0.09646,0.04807 c 0.173162,0.08629 0.264352,0.2369602 0.264352,0.4367786 0,0.1649891 -0.04095,0.2461246 -0.218366,0.4326066 -0.081,0.085143 -1.828189,1.9422186 -3.8826377,4.1268349 -2.0544485,2.184615 -3.8160506,4.054459 -3.914671,4.155208 -0.098621,0.10075 -0.2126295,0.200467 -0.2533536,0.221592 -0.080357,0.04168 -0.26837,0.06116 -0.3456575,0.0358 z"
     style="fill:#1976d2;fill-opacity:1;stroke:#1976d2;stroke-width:0.019;stroke-opacity:1;stroke-miterlimit:4;stroke-dasharray:none" />
</svg>
